<mxfile host="app.diagrams.net" agent="Mozilla/5.0 (Windows NT 10.0; Win64; x64) AppleWebKit/537.36 (KHTML, like Gecko) Chrome/135.0.0.0 Safari/537.36" version="26.2.14">
  <diagram name="Page-1" id="h61SVVntLW2SpJuhT1aK">
    <mxGraphModel dx="2593" dy="1351" grid="0" gridSize="10" guides="1" tooltips="1" connect="1" arrows="1" fold="1" page="1" pageScale="1" pageWidth="5000" pageHeight="2000" math="0" shadow="0">
      <root>
        <mxCell id="0" />
        <mxCell id="1" parent="0" />
        <mxCell id="_Dbv0V_0b71Nu5GrJvEi-3" value="" style="edgeStyle=orthogonalEdgeStyle;rounded=0;orthogonalLoop=1;jettySize=auto;html=1;" parent="1" source="_Dbv0V_0b71Nu5GrJvEi-1" target="_Dbv0V_0b71Nu5GrJvEi-2" edge="1">
          <mxGeometry relative="1" as="geometry" />
        </mxCell>
        <mxCell id="_Dbv0V_0b71Nu5GrJvEi-1" value="Input Username" style="ellipse;whiteSpace=wrap;html=1;" parent="1" vertex="1">
          <mxGeometry x="600" y="150" width="120" height="60" as="geometry" />
        </mxCell>
        <mxCell id="_Dbv0V_0b71Nu5GrJvEi-5" value="" style="edgeStyle=orthogonalEdgeStyle;rounded=0;orthogonalLoop=1;jettySize=auto;html=1;" parent="1" source="_Dbv0V_0b71Nu5GrJvEi-2" target="_Dbv0V_0b71Nu5GrJvEi-4" edge="1">
          <mxGeometry relative="1" as="geometry" />
        </mxCell>
        <mxCell id="_Dbv0V_0b71Nu5GrJvEi-2" value="Search User (check username META API)" style="whiteSpace=wrap;html=1;" parent="1" vertex="1">
          <mxGeometry x="600" y="260" width="120" height="60" as="geometry" />
        </mxCell>
        <mxCell id="_Dbv0V_0b71Nu5GrJvEi-7" value="FALSE" style="edgeStyle=orthogonalEdgeStyle;rounded=0;orthogonalLoop=1;jettySize=auto;html=1;" parent="1" source="_Dbv0V_0b71Nu5GrJvEi-4" target="_Dbv0V_0b71Nu5GrJvEi-6" edge="1">
          <mxGeometry relative="1" as="geometry" />
        </mxCell>
        <mxCell id="_Dbv0V_0b71Nu5GrJvEi-13" value="" style="edgeStyle=orthogonalEdgeStyle;rounded=0;orthogonalLoop=1;jettySize=auto;html=1;" parent="1" source="_Dbv0V_0b71Nu5GrJvEi-4" target="_Dbv0V_0b71Nu5GrJvEi-12" edge="1">
          <mxGeometry relative="1" as="geometry" />
        </mxCell>
        <mxCell id="_Dbv0V_0b71Nu5GrJvEi-14" value="TRUE" style="edgeLabel;html=1;align=center;verticalAlign=middle;resizable=0;points=[];" parent="_Dbv0V_0b71Nu5GrJvEi-13" vertex="1" connectable="0">
          <mxGeometry x="-0.2222" y="1" relative="1" as="geometry">
            <mxPoint as="offset" />
          </mxGeometry>
        </mxCell>
        <mxCell id="_Dbv0V_0b71Nu5GrJvEi-4" value="username exists?" style="rhombus;whiteSpace=wrap;html=1;" parent="1" vertex="1">
          <mxGeometry x="620" y="370" width="80" height="80" as="geometry" />
        </mxCell>
        <mxCell id="_Dbv0V_0b71Nu5GrJvEi-11" value="" style="edgeStyle=orthogonalEdgeStyle;rounded=0;orthogonalLoop=1;jettySize=auto;html=1;" parent="1" source="_Dbv0V_0b71Nu5GrJvEi-6" target="_Dbv0V_0b71Nu5GrJvEi-10" edge="1">
          <mxGeometry relative="1" as="geometry" />
        </mxCell>
        <mxCell id="_Dbv0V_0b71Nu5GrJvEi-6" value="Respond user does not exist" style="whiteSpace=wrap;html=1;" parent="1" vertex="1">
          <mxGeometry x="780" y="380" width="120" height="60" as="geometry" />
        </mxCell>
        <mxCell id="_Dbv0V_0b71Nu5GrJvEi-10" value="end" style="ellipse;whiteSpace=wrap;html=1;" parent="1" vertex="1">
          <mxGeometry x="940" y="385" width="80" height="50" as="geometry" />
        </mxCell>
        <mxCell id="_Dbv0V_0b71Nu5GrJvEi-21" value="" style="edgeStyle=orthogonalEdgeStyle;rounded=0;orthogonalLoop=1;jettySize=auto;html=1;" parent="1" source="_Dbv0V_0b71Nu5GrJvEi-12" target="_Dbv0V_0b71Nu5GrJvEi-15" edge="1">
          <mxGeometry relative="1" as="geometry" />
        </mxCell>
        <mxCell id="_Dbv0V_0b71Nu5GrJvEi-12" value="Run apify (actor)" style="whiteSpace=wrap;html=1;" parent="1" vertex="1">
          <mxGeometry x="600" y="520" width="120" height="60" as="geometry" />
        </mxCell>
        <mxCell id="Ycl4GxUiq36-YD5LlwCj-3" style="edgeStyle=orthogonalEdgeStyle;rounded=0;orthogonalLoop=1;jettySize=auto;html=1;entryX=0.5;entryY=0;entryDx=0;entryDy=0;" parent="1" source="_Dbv0V_0b71Nu5GrJvEi-15" target="_Dbv0V_0b71Nu5GrJvEi-19" edge="1">
          <mxGeometry relative="1" as="geometry" />
        </mxCell>
        <mxCell id="_Dbv0V_0b71Nu5GrJvEi-15" value="Get dataset / results" style="whiteSpace=wrap;html=1;" parent="1" vertex="1">
          <mxGeometry x="600" y="630" width="120" height="60" as="geometry" />
        </mxCell>
        <mxCell id="_Dbv0V_0b71Nu5GrJvEi-23" style="edgeStyle=orthogonalEdgeStyle;rounded=0;orthogonalLoop=1;jettySize=auto;html=1;" parent="1" source="_Dbv0V_0b71Nu5GrJvEi-19" target="_Dbv0V_0b71Nu5GrJvEi-15" edge="1">
          <mxGeometry relative="1" as="geometry">
            <Array as="points">
              <mxPoint x="540" y="790" />
              <mxPoint x="540" y="660" />
            </Array>
            <mxPoint x="770" y="680" as="targetPoint" />
          </mxGeometry>
        </mxCell>
        <mxCell id="_Dbv0V_0b71Nu5GrJvEi-24" value="FALSE" style="edgeLabel;html=1;align=center;verticalAlign=middle;resizable=0;points=[];" parent="_Dbv0V_0b71Nu5GrJvEi-23" vertex="1" connectable="0">
          <mxGeometry x="0.2015" y="1" relative="1" as="geometry">
            <mxPoint x="-19" y="8" as="offset" />
          </mxGeometry>
        </mxCell>
        <mxCell id="_Dbv0V_0b71Nu5GrJvEi-26" value="" style="edgeStyle=orthogonalEdgeStyle;rounded=0;orthogonalLoop=1;jettySize=auto;html=1;" parent="1" source="_Dbv0V_0b71Nu5GrJvEi-19" target="_Dbv0V_0b71Nu5GrJvEi-25" edge="1">
          <mxGeometry relative="1" as="geometry" />
        </mxCell>
        <mxCell id="_Dbv0V_0b71Nu5GrJvEi-27" value="TRUE" style="edgeLabel;html=1;align=center;verticalAlign=middle;resizable=0;points=[];" parent="_Dbv0V_0b71Nu5GrJvEi-26" vertex="1" connectable="0">
          <mxGeometry x="-0.2768" y="1" relative="1" as="geometry">
            <mxPoint as="offset" />
          </mxGeometry>
        </mxCell>
        <mxCell id="Ycl4GxUiq36-YD5LlwCj-5" value="" style="edgeStyle=orthogonalEdgeStyle;rounded=0;orthogonalLoop=1;jettySize=auto;html=1;" parent="1" source="_Dbv0V_0b71Nu5GrJvEi-19" target="Ycl4GxUiq36-YD5LlwCj-4" edge="1">
          <mxGeometry relative="1" as="geometry" />
        </mxCell>
        <mxCell id="Ycl4GxUiq36-YD5LlwCj-6" value="TRUE" style="edgeLabel;html=1;align=center;verticalAlign=middle;resizable=0;points=[];" parent="Ycl4GxUiq36-YD5LlwCj-5" vertex="1" connectable="0">
          <mxGeometry x="-0.1778" relative="1" as="geometry">
            <mxPoint as="offset" />
          </mxGeometry>
        </mxCell>
        <mxCell id="_Dbv0V_0b71Nu5GrJvEi-19" value="Is dataset available" style="rhombus;whiteSpace=wrap;html=1;" parent="1" vertex="1">
          <mxGeometry x="620" y="750" width="80" height="80" as="geometry" />
        </mxCell>
        <mxCell id="_Dbv0V_0b71Nu5GrJvEi-25" value="Display dataset / reels / result" style="whiteSpace=wrap;html=1;" parent="1" vertex="1">
          <mxGeometry x="830" y="760" width="120" height="60" as="geometry" />
        </mxCell>
        <mxCell id="Ycl4GxUiq36-YD5LlwCj-10" value="" style="edgeStyle=orthogonalEdgeStyle;rounded=0;orthogonalLoop=1;jettySize=auto;html=1;" parent="1" source="Ycl4GxUiq36-YD5LlwCj-4" target="Ycl4GxUiq36-YD5LlwCj-9" edge="1">
          <mxGeometry relative="1" as="geometry" />
        </mxCell>
        <mxCell id="Ycl4GxUiq36-YD5LlwCj-4" value="Check duplicates from DB" style="whiteSpace=wrap;html=1;" parent="1" vertex="1">
          <mxGeometry x="600" y="900" width="120" height="60" as="geometry" />
        </mxCell>
        <mxCell id="Ycl4GxUiq36-YD5LlwCj-12" value="" style="edgeStyle=orthogonalEdgeStyle;rounded=0;orthogonalLoop=1;jettySize=auto;html=1;" parent="1" source="Ycl4GxUiq36-YD5LlwCj-9" target="Ycl4GxUiq36-YD5LlwCj-11" edge="1">
          <mxGeometry relative="1" as="geometry" />
        </mxCell>
        <mxCell id="Ycl4GxUiq36-YD5LlwCj-13" value="TRUE" style="edgeLabel;html=1;align=center;verticalAlign=middle;resizable=0;points=[];" parent="Ycl4GxUiq36-YD5LlwCj-12" vertex="1" connectable="0">
          <mxGeometry x="-0.2255" y="1" relative="1" as="geometry">
            <mxPoint as="offset" />
          </mxGeometry>
        </mxCell>
        <mxCell id="Ycl4GxUiq36-YD5LlwCj-15" value="" style="edgeStyle=orthogonalEdgeStyle;rounded=0;orthogonalLoop=1;jettySize=auto;html=1;" parent="1" source="Ycl4GxUiq36-YD5LlwCj-9" target="Ycl4GxUiq36-YD5LlwCj-14" edge="1">
          <mxGeometry relative="1" as="geometry" />
        </mxCell>
        <mxCell id="Ycl4GxUiq36-YD5LlwCj-16" value="FALSE" style="edgeLabel;html=1;align=center;verticalAlign=middle;resizable=0;points=[];" parent="Ycl4GxUiq36-YD5LlwCj-15" vertex="1" connectable="0">
          <mxGeometry x="-0.3546" relative="1" as="geometry">
            <mxPoint as="offset" />
          </mxGeometry>
        </mxCell>
        <mxCell id="BrmdzVbv70yO6n5Es6os-3" value="" style="edgeStyle=orthogonalEdgeStyle;rounded=0;orthogonalLoop=1;jettySize=auto;html=1;" parent="1" source="Ycl4GxUiq36-YD5LlwCj-9" target="BrmdzVbv70yO6n5Es6os-2" edge="1">
          <mxGeometry relative="1" as="geometry" />
        </mxCell>
        <mxCell id="Ycl4GxUiq36-YD5LlwCj-9" value="has duplicates" style="rhombus;whiteSpace=wrap;html=1;" parent="1" vertex="1">
          <mxGeometry x="610" y="1030" width="100" height="80" as="geometry" />
        </mxCell>
        <mxCell id="Ycl4GxUiq36-YD5LlwCj-11" value="return" style="whiteSpace=wrap;html=1;" parent="1" vertex="1">
          <mxGeometry x="600" y="1170" width="120" height="60" as="geometry" />
        </mxCell>
        <mxCell id="Ycl4GxUiq36-YD5LlwCj-14" value="Save dataset to DB" style="whiteSpace=wrap;html=1;" parent="1" vertex="1">
          <mxGeometry x="840" y="980" width="120" height="60" as="geometry" />
        </mxCell>
        <mxCell id="QRAZltIY2AsecKisff2K-2" value="" style="edgeStyle=orthogonalEdgeStyle;rounded=0;orthogonalLoop=1;jettySize=auto;html=1;" parent="1" source="BrmdzVbv70yO6n5Es6os-2" target="QRAZltIY2AsecKisff2K-1" edge="1">
          <mxGeometry relative="1" as="geometry" />
        </mxCell>
        <mxCell id="BrmdzVbv70yO6n5Es6os-2" value="Transcribe Video to Text using whisper" style="whiteSpace=wrap;html=1;" parent="1" vertex="1">
          <mxGeometry x="840" y="1090" width="120" height="60" as="geometry" />
        </mxCell>
        <mxCell id="QRAZltIY2AsecKisff2K-1" value="Save Text to Video&#39;s data" style="whiteSpace=wrap;html=1;" parent="1" vertex="1">
          <mxGeometry x="1040" y="1090" width="120" height="60" as="geometry" />
        </mxCell>
        <mxCell id="o0v9pR_ql7v2SHRatpIa-1" value="&lt;font style=&quot;font-size: 30px;&quot;&gt;Meedro - viral finder&lt;/font&gt;" style="text;html=1;align=center;verticalAlign=middle;whiteSpace=wrap;rounded=0;" vertex="1" parent="1">
          <mxGeometry x="1910" y="180" width="270" height="30" as="geometry" />
        </mxCell>
        <mxCell id="o0v9pR_ql7v2SHRatpIa-2" value="&lt;font style=&quot;font-size: 30px;&quot;&gt;Laravel (REST API)&lt;/font&gt;" style="text;html=1;align=center;verticalAlign=middle;whiteSpace=wrap;rounded=0;" vertex="1" parent="1">
          <mxGeometry x="2770" y="180" width="270" height="30" as="geometry" />
        </mxCell>
        <mxCell id="o0v9pR_ql7v2SHRatpIa-3" value="" style="image;aspect=fixed;html=1;points=[];align=center;fontSize=12;image=img/lib/azure2/app_services/Search_Services.svg;" vertex="1" parent="1">
          <mxGeometry x="2000" y="336" width="90" height="65.01" as="geometry" />
        </mxCell>
        <mxCell id="o0v9pR_ql7v2SHRatpIa-4" value="" style="image;aspect=fixed;perimeter=ellipsePerimeter;html=1;align=center;shadow=0;dashed=0;spacingTop=3;image=img/lib/active_directory/database.svg;" vertex="1" parent="1">
          <mxGeometry x="2735" y="725" width="87.84" height="65" as="geometry" />
        </mxCell>
        <mxCell id="o0v9pR_ql7v2SHRatpIa-5" value="" style="endArrow=classic;html=1;rounded=0;flowAnimation=1;strokeWidth=5;exitX=1;exitY=1;exitDx=0;exitDy=0;" edge="1" parent="1" source="o0v9pR_ql7v2SHRatpIa-15">
          <mxGeometry width="50" height="50" relative="1" as="geometry">
            <mxPoint x="2118" y="699" as="sourcePoint" />
            <mxPoint x="2784" y="366" as="targetPoint" />
            <Array as="points">
              <mxPoint x="2264" y="686" />
              <mxPoint x="2456" y="372" />
            </Array>
          </mxGeometry>
        </mxCell>
        <mxCell id="o0v9pR_ql7v2SHRatpIa-6" value="Search username / url" style="text;html=1;align=center;verticalAlign=middle;whiteSpace=wrap;rounded=0;fontSize=20;" vertex="1" parent="1">
          <mxGeometry x="1930" y="290" width="210" height="30" as="geometry" />
        </mxCell>
        <mxCell id="o0v9pR_ql7v2SHRatpIa-7" value="" style="aspect=fixed;sketch=0;html=1;dashed=0;whitespace=wrap;verticalLabelPosition=bottom;verticalAlign=top;fillColor=#2875E2;strokeColor=#ffffff;points=[[0.005,0.63,0],[0.1,0.2,0],[0.9,0.2,0],[0.5,0,0],[0.995,0.63,0],[0.72,0.99,0],[0.5,1,0],[0.28,0.99,0]];shape=mxgraph.kubernetes.icon2;kubernetesLabel=1;prIcon=api" vertex="1" parent="1">
          <mxGeometry x="2000" y="515" width="90" height="86.4" as="geometry" />
        </mxCell>
        <mxCell id="o0v9pR_ql7v2SHRatpIa-8" value="" style="endArrow=classic;html=1;rounded=0;flowAnimation=1;strokeWidth=5;" edge="1" parent="1">
          <mxGeometry width="50" height="50" relative="1" as="geometry">
            <mxPoint x="2044" y="408" as="sourcePoint" />
            <mxPoint x="2044.42" y="482" as="targetPoint" />
          </mxGeometry>
        </mxCell>
        <mxCell id="o0v9pR_ql7v2SHRatpIa-9" value="Call apify API to scrape" style="text;html=1;align=center;verticalAlign=middle;whiteSpace=wrap;rounded=0;fontSize=20;" vertex="1" parent="1">
          <mxGeometry x="1930" y="490" width="210" height="30" as="geometry" />
        </mxCell>
        <mxCell id="o0v9pR_ql7v2SHRatpIa-10" value="&lt;font style=&quot;font-size: 15px;&quot;&gt;Results /&amp;nbsp;&lt;/font&gt;&lt;div&gt;&lt;font style=&quot;font-size: 15px;&quot;&gt;metadata&lt;/font&gt;&lt;/div&gt;" style="shape=parallelogram;perimeter=parallelogramPerimeter;whiteSpace=wrap;html=1;dashed=0;" vertex="1" parent="1">
          <mxGeometry x="1981" y="697" width="128" height="85" as="geometry" />
        </mxCell>
        <mxCell id="o0v9pR_ql7v2SHRatpIa-11" value="" style="endArrow=classic;html=1;rounded=0;flowAnimation=1;strokeWidth=5;" edge="1" parent="1">
          <mxGeometry width="50" height="50" relative="1" as="geometry">
            <mxPoint x="2047" y="611" as="sourcePoint" />
            <mxPoint x="2047" y="666" as="targetPoint" />
          </mxGeometry>
        </mxCell>
        <mxCell id="o0v9pR_ql7v2SHRatpIa-12" value="" style="sketch=0;pointerEvents=1;shadow=0;dashed=0;html=1;strokeColor=none;fillColor=#434445;aspect=fixed;labelPosition=center;verticalLabelPosition=bottom;verticalAlign=top;align=center;outlineConnect=0;shape=mxgraph.vvd.business_continuity_data_protection;" vertex="1" parent="1">
          <mxGeometry x="2845.11" y="322" width="98.84" height="85" as="geometry" />
        </mxCell>
        <mxCell id="o0v9pR_ql7v2SHRatpIa-14" value="&lt;font style=&quot;font-size: 20px;&quot;&gt;Send Metadata through API&lt;/font&gt;" style="text;html=1;align=center;verticalAlign=middle;whiteSpace=wrap;rounded=0;rotation=0;fontSize=15;" vertex="1" parent="1">
          <mxGeometry x="2287" y="306" width="341.87" height="64" as="geometry" />
        </mxCell>
        <mxCell id="o0v9pR_ql7v2SHRatpIa-15" value="Display results" style="text;html=1;align=center;verticalAlign=middle;whiteSpace=wrap;rounded=0;fontSize=20;" vertex="1" parent="1">
          <mxGeometry x="1940" y="660" width="210" height="30" as="geometry" />
        </mxCell>
        <mxCell id="o0v9pR_ql7v2SHRatpIa-16" value="&lt;font style=&quot;font-size: 20px;&quot;&gt;Validate data if exist&lt;/font&gt;" style="text;html=1;align=center;verticalAlign=middle;whiteSpace=wrap;rounded=0;rotation=0;fontSize=15;" vertex="1" parent="1">
          <mxGeometry x="2710" y="254" width="341.87" height="64" as="geometry" />
        </mxCell>
        <mxCell id="o0v9pR_ql7v2SHRatpIa-18" value="" style="endArrow=classic;html=1;rounded=0;flowAnimation=1;strokeWidth=5;" edge="1" parent="1">
          <mxGeometry width="50" height="50" relative="1" as="geometry">
            <mxPoint x="2985" y="363.79" as="sourcePoint" />
            <mxPoint x="3204" y="363" as="targetPoint" />
          </mxGeometry>
        </mxCell>
        <mxCell id="o0v9pR_ql7v2SHRatpIa-19" value="&lt;font style=&quot;font-size: 20px;&quot;&gt;return / stop&lt;/font&gt;" style="rounded=1;whiteSpace=wrap;html=1;" vertex="1" parent="1">
          <mxGeometry x="3226" y="334.5" width="181" height="60" as="geometry" />
        </mxCell>
        <mxCell id="o0v9pR_ql7v2SHRatpIa-20" value="&lt;font style=&quot;font-size: 19px;&quot;&gt;TRUE&lt;/font&gt;" style="text;html=1;align=center;verticalAlign=middle;resizable=0;points=[];autosize=1;strokeColor=none;fillColor=none;" vertex="1" parent="1">
          <mxGeometry x="3051.87" y="328" width="70" height="35" as="geometry" />
        </mxCell>
        <mxCell id="o0v9pR_ql7v2SHRatpIa-21" value="" style="endArrow=classic;html=1;rounded=0;flowAnimation=1;strokeWidth=5;" edge="1" parent="1">
          <mxGeometry width="50" height="50" relative="1" as="geometry">
            <mxPoint x="2893.82" y="419" as="sourcePoint" />
            <mxPoint x="2796" y="667" as="targetPoint" />
            <Array as="points">
              <mxPoint x="2894" y="585" />
              <mxPoint x="2793" y="585" />
            </Array>
          </mxGeometry>
        </mxCell>
        <mxCell id="o0v9pR_ql7v2SHRatpIa-22" value="&lt;font style=&quot;font-size: 19px;&quot;&gt;Does not exist&lt;/font&gt;" style="text;html=1;align=center;verticalAlign=middle;resizable=0;points=[];autosize=1;strokeColor=none;fillColor=none;" vertex="1" parent="1">
          <mxGeometry x="2900" y="485" width="138" height="35" as="geometry" />
        </mxCell>
        <mxCell id="o0v9pR_ql7v2SHRatpIa-23" value="&lt;font style=&quot;font-size: 19px;&quot;&gt;Save metadata to Database (mysql)&lt;/font&gt;" style="text;html=1;align=center;verticalAlign=middle;resizable=0;points=[];autosize=1;strokeColor=none;fillColor=none;" vertex="1" parent="1">
          <mxGeometry x="2632" y="680" width="321" height="35" as="geometry" />
        </mxCell>
        <mxCell id="o0v9pR_ql7v2SHRatpIa-26" value="" style="endArrow=classic;html=1;rounded=0;flowAnimation=1;strokeWidth=5;" edge="1" parent="1">
          <mxGeometry width="50" height="50" relative="1" as="geometry">
            <mxPoint x="2895" y="585" as="sourcePoint" />
            <mxPoint x="3131.18" y="658.4" as="targetPoint" />
            <Array as="points">
              <mxPoint x="3131" y="585" />
            </Array>
          </mxGeometry>
        </mxCell>
        <mxCell id="o0v9pR_ql7v2SHRatpIa-27" value="" style="points=[];aspect=fixed;html=1;align=center;shadow=0;dashed=0;fillColor=#FF6A00;strokeColor=none;shape=mxgraph.alibaba_cloud.multimediaai;" vertex="1" parent="1">
          <mxGeometry x="3094.92" y="974.95" width="71.17" height="70.1" as="geometry" />
        </mxCell>
        <mxCell id="o0v9pR_ql7v2SHRatpIa-28" value="&lt;font style=&quot;font-size: 19px;&quot;&gt;Transcribe mp4 to text&lt;/font&gt;" style="text;html=1;align=center;verticalAlign=middle;resizable=0;points=[];autosize=1;strokeColor=none;fillColor=none;" vertex="1" parent="1">
          <mxGeometry x="3032.54" y="934" width="206" height="35" as="geometry" />
        </mxCell>
        <mxCell id="o0v9pR_ql7v2SHRatpIa-29" value="" style="points=[];aspect=fixed;html=1;align=center;shadow=0;dashed=0;fillColor=#FF6A00;strokeColor=none;shape=mxgraph.alibaba_cloud.cvc_cloud_video_conferencing;" vertex="1" parent="1">
          <mxGeometry x="3105" y="729" width="61.09" height="83.6" as="geometry" />
        </mxCell>
        <mxCell id="o0v9pR_ql7v2SHRatpIa-30" value="&lt;font style=&quot;font-size: 19px;&quot;&gt;Convert URL to File&lt;/font&gt;&lt;div&gt;&lt;span style=&quot;font-size: 19px;&quot;&gt;(file streaming)&lt;/span&gt;&lt;/div&gt;" style="text;html=1;align=center;verticalAlign=middle;resizable=0;points=[];autosize=1;strokeColor=none;fillColor=none;" vertex="1" parent="1">
          <mxGeometry x="3038" y="674" width="184" height="58" as="geometry" />
        </mxCell>
        <mxCell id="o0v9pR_ql7v2SHRatpIa-31" value="" style="endArrow=classic;html=1;rounded=0;flowAnimation=1;strokeWidth=5;entryX=0.495;entryY=-0.102;entryDx=0;entryDy=0;entryPerimeter=0;" edge="1" parent="1" target="o0v9pR_ql7v2SHRatpIa-28">
          <mxGeometry width="50" height="50" relative="1" as="geometry">
            <mxPoint x="3134.83" y="820" as="sourcePoint" />
            <mxPoint x="3135" y="906" as="targetPoint" />
          </mxGeometry>
        </mxCell>
        <mxCell id="o0v9pR_ql7v2SHRatpIa-32" value="&lt;font style=&quot;font-size: 19px;&quot;&gt;Send the mp4 file to openAI whisper model&lt;/font&gt;&lt;div&gt;&lt;font style=&quot;font-size: 19px;&quot;&gt;(mp4)&lt;/font&gt;&lt;/div&gt;" style="text;html=1;align=center;verticalAlign=middle;resizable=0;points=[];autosize=1;strokeColor=none;fillColor=none;" vertex="1" parent="1">
          <mxGeometry x="3145" y="823" width="380" height="58" as="geometry" />
        </mxCell>
        <mxCell id="o0v9pR_ql7v2SHRatpIa-33" value="" style="endArrow=classic;html=1;rounded=0;flowAnimation=1;strokeWidth=5;" edge="1" parent="1">
          <mxGeometry width="50" height="50" relative="1" as="geometry">
            <mxPoint x="3130" y="1053" as="sourcePoint" />
            <mxPoint x="3129.51" y="1150" as="targetPoint" />
          </mxGeometry>
        </mxCell>
        <mxCell id="o0v9pR_ql7v2SHRatpIa-34" value="" style="image;aspect=fixed;perimeter=ellipsePerimeter;html=1;align=center;shadow=0;dashed=0;spacingTop=3;image=img/lib/active_directory/database.svg;" vertex="1" parent="1">
          <mxGeometry x="3086.59" y="1213" width="87.84" height="65" as="geometry" />
        </mxCell>
        <mxCell id="o0v9pR_ql7v2SHRatpIa-35" value="&lt;font style=&quot;font-size: 19px;&quot;&gt;Save transcribed Text to DB (mysql)&lt;/font&gt;" style="text;html=1;align=center;verticalAlign=middle;resizable=0;points=[];autosize=1;strokeColor=none;fillColor=none;" vertex="1" parent="1">
          <mxGeometry x="2975.54" y="1162" width="321" height="35" as="geometry" />
        </mxCell>
        <mxCell id="o0v9pR_ql7v2SHRatpIa-39" value="" style="rounded=0;whiteSpace=wrap;html=1;" vertex="1" parent="1">
          <mxGeometry x="2356" y="46" width="373" height="60" as="geometry" />
        </mxCell>
        <mxCell id="o0v9pR_ql7v2SHRatpIa-37" value="&lt;font style=&quot;font-size: 35px;&quot;&gt;Search User Process&lt;/font&gt;" style="text;html=1;align=center;verticalAlign=middle;whiteSpace=wrap;rounded=0;" vertex="1" parent="1">
          <mxGeometry x="2327" y="55" width="430" height="30" as="geometry" />
        </mxCell>
      </root>
    </mxGraphModel>
  </diagram>
</mxfile>
